<svg xmlns="http://www.w3.org/2000/svg" viewBox="0 0 894.8 136.19"><defs><style>.cls-1,.cls-2{fill:#939598;}.cls-2{opacity:0.5;}</style></defs><g id="Layer_2" data-name="Layer 2"><g id="Layer_1-2" data-name="Layer 1"><path class="cls-1" d="M33.9,54.24V80.33c0,6.34,5.45,6.93,15.18,6.34v20c-28.89,3-37.29-5.75-37.29-26.38V54.24H0V33H11.79V19L33.9,12.38V33H49.08V54.24Z"/><path class="cls-1" d="M59.4,13.27a13.27,13.27,0,1,1,26.53,0,13.27,13.27,0,0,1-26.53,0ZM61.61,33H83.72v73.69H61.61Z"/><path class="cls-1" d="M179.23,69.86c0,22-15.92,38.92-35.23,38.92-9.88,0-17.1-3.39-22-9v36.4H99.93V33H122v6.92c4.86-5.6,12.08-9,22-9C163.31,31,179.23,47.9,179.23,69.86Zm-22.11,0c0-11-7.37-18-17.54-18S122,58.81,122,69.86s7.37,18,17.54,18S157.12,80.92,157.12,69.86Z"/><path class="cls-1" d="M247.47,84.6c0,17-14.74,24.18-30.66,24.18-14.74,0-25.94-5.6-31.69-17.54l19.16-10.91c1.92,5.6,6,8.7,12.53,8.7,5.31,0,8-1.63,8-4.57,0-8.11-36.26-3.84-36.26-29.33C188.51,39.06,202.07,31,217.4,31c11.94,0,22.55,5.31,28.74,15.77L227.27,56.89c-2.06-3.83-5-6.48-9.87-6.48-3.83,0-6.19,1.47-6.19,4.13C211.21,62.94,247.47,57.34,247.47,84.6Z"/><path class="cls-2" d="M333.4,3.54V106.71H311.29V99.79c-4.87,5.6-12.09,9-22,9-19.31,0-35.23-17-35.23-38.92S270,31,289.33,31c9.87,0,17.09,3.39,22,9V3.54ZM311.29,69.86c0-11-7.37-18-17.54-18s-17.54,6.93-17.54,18,7.37,18,17.54,18S311.29,80.92,311.29,69.86Z"/><path class="cls-2" d="M387,89c6,0,11.21-2.36,14.15-5.61l17.69,10.17c-7.22,10-18.13,15.19-32.13,15.19-25.2,0-40.83-17-40.83-38.92S361.84,31,385.13,31c21.52,0,37.44,16.66,37.44,38.91a42.84,42.84,0,0,1-.89,8.85H369.36C372.16,86.37,378.94,89,387,89ZM400.6,62.2c-2.35-8.55-9-11.64-15.62-11.64-8.4,0-14,4.12-16.06,11.64Z"/><path class="cls-1" d="M489.33,84.6c0,17-14.73,24.18-30.65,24.18-14.74,0-25.94-5.6-31.69-17.54l19.16-10.91c1.91,5.6,6,8.7,12.53,8.7,5.3,0,8-1.63,8-4.57,0-8.11-36.26-3.84-36.26-29.33,0-16.07,13.56-24.18,28.89-24.18,11.93,0,22.55,5.31,28.74,15.77L469.14,56.89c-2.06-3.83-5-6.48-9.87-6.48-3.84,0-6.19,1.47-6.19,4.13C453.08,62.94,489.33,57.34,489.33,84.6Z"/><path class="cls-1" d="M526.18,54.24V80.33c0,6.34,5.46,6.93,15.18,6.34v20c-28.89,3-37.29-5.75-37.29-26.38V54.24H492.28V33h11.79V19l22.11-6.63V33h15.18V54.24Z"/><path class="cls-1" d="M599.58,31.54V56.6c-9.14-1.47-22.11,2.21-22.11,16.8v33.31H555.36V33h22.11V46.13C580.42,36.26,590.3,31.54,599.58,31.54Z"/><path class="cls-1" d="M645.12,89c6,0,11.21-2.36,14.15-5.61L677,93.59c-7.22,10-18.13,15.19-32.13,15.19-25.2,0-40.83-17-40.83-38.92S619.92,31,643.21,31c21.52,0,37.44,16.66,37.44,38.91a42.84,42.84,0,0,1-.89,8.85H627.44C630.24,86.37,637,89,645.12,89ZM658.68,62.2c-2.35-8.55-9-11.64-15.62-11.64-8.4,0-14,4.12-16.06,11.64Z"/><path class="cls-1" d="M768.05,33v73.69H745.94V99.79c-4.86,5.6-12.09,9-22,9-19.31,0-35.23-17-35.23-38.92S704.67,31,724,31c9.87,0,17.1,3.39,22,9V33ZM745.94,69.86c0-11-7.37-18-17.54-18s-17.54,6.93-17.54,18,7.37,18,17.54,18S745.94,80.92,745.94,69.86Z"/><path class="cls-1" d="M894.8,61.46v45.25H872.7V63.38c0-7.37-3.54-12.09-10.62-12.09-7.37,0-11.49,5.16-11.49,13.86v41.56H828.48V63.38c0-7.37-3.54-12.09-10.62-12.09-7.36,0-11.49,5.16-11.49,13.86v41.56H784.26V33h22.11V39.8c3.39-5,9.87-8.85,19.75-8.85,8.7,0,15.18,3.54,19.31,9.73,4.12-5.9,10.9-9.73,21.37-9.73C883.75,31,894.8,43,894.8,61.46Z"/></g></g></svg>