<svg xmlns="http://www.w3.org/2000/svg" viewBox="0 0 1402.25 1402.25"><defs><style>.cls-1{fill:#333132;}.cls-2{fill:#fff;}.cls-3{fill:#939598;}</style></defs><g id="Layer_2" data-name="Layer 2"><g id="Layer_1-2" data-name="Layer 1"><rect class="cls-1" width="1402.25" height="1402.25"/><path class="cls-2" d="M696.75,1064.34l-2.75,0c-16-.18-99-4.27-165.56-67.27-42.53-40.29-77.36-105.73-59.34-135.2a22.26,22.26,0,0,1,2.51-3.2c2.91-3.27,10.64-11.95,26.64-43.1,8.82-17.18,12.65-30.63,16-42.5,4.39-15.42,8.54-30,21.94-46.22a234.27,234.27,0,0,1,37.31-36c-13.14-22.75-44.82-79.66-69.29-140.22-16.7-41.32-27.06-77-30.8-106-4.94-38.3,1.61-66.13,19.47-82.71,14.65-13.6,33.19-16.45,46.16-16.45a73.87,73.87,0,0,1,12.62,1c18.57,3.49,35.7,14.85,50.91,33.79,13.92,17.32,26.24,41,36.61,70.39,19.3,54.65,31.43,127.41,35.24,211.06A177.57,177.57,0,0,1,703,659.31h1.65A275.8,275.8,0,0,1,739.37,662c-10.87-77.47-11.13-147.24-.71-202.54,11.65-61.83,36.18-101.82,70.92-115.65a87.76,87.76,0,0,1,30.67-5.88c12.17,0,22.88,3,31.81,9,18.3,12.22,28.07,36.22,29,71.34.75,27.05-3.64,61.52-13,102.45-11.23,48.87-29.79,107.65-53.8,170.39A160.93,160.93,0,0,1,868,729.8c10.12,16.37,13.67,29.35,17.43,43.09,2.76,10.08,5.61,20.51,11.44,33.75a144.18,144.18,0,0,0,13.9,25.17c3.92,5.56,7.15,10.09,9.83,13.85,7.09,9.94,10.64,14.93,13.24,19.82,8.9,16.74,3.63,41.31-15.23,71-15.32,24.16-38.87,50.06-63,69.3a275.09,275.09,0,0,1-55,34.87A240.45,240.45,0,0,1,696.75,1064.34Z"/><ellipse class="cls-2" cx="678.66" cy="852.82" rx="17.16" ry="4.61" transform="translate(-145.4 139.51) rotate(-10.61)"/><path class="cls-3" d="M718.19,920l-13.8,9.76c-4.3,3-11.55,3-15.85,0L674.73,920c-6.56-4.63-1.63-12.26,7.93-12.26h27.61C719.83,907.74,724.76,915.37,718.19,920Z"/><path class="cls-3" d="M840.25,348.57c8.45,0,17.71,1.74,25.89,7.2,66.08,44.11-20.46,276.39-44.63,338.76a152.25,152.25,0,0,1,37.37,40.87c16.43,26.6,14,43.34,28.18,75.54a153.3,153.3,0,0,0,15,27c14,19.93,19.21,26.59,22.37,32.53,15,28.29-29.4,90.29-75.46,127-18.34,14.62-72.1,56.18-152.17,56.18l-2.63,0c-10.16-.11-92.84-2.3-158.35-64.35-43.45-41.16-70.69-100.46-57.57-121.9,1.44-2.35,9.41-7.82,29.53-47,20.81-40.52,15-60.54,36.71-86.81a226.46,226.46,0,0,1,43.12-39.92c-13-21.83-153.74-262.44-87.39-324,12.31-11.43,28.43-13.6,38.9-13.6a63.57,63.57,0,0,1,10.66.81C615,369.14,658.08,498.08,664.3,674.51A169.85,169.85,0,0,1,703,670h1.55a296.48,296.48,0,0,1,47.5,4.79h0c-25.83-166.27-2.41-295.63,61.48-321.07a77.5,77.5,0,0,1,26.73-5.12m0-21.32a99.2,99.2,0,0,0-34.61,6.63c-38.31,15.26-65.09,58-77.46,123.59-10,53.14-10.38,119.18-1.18,192.36-7.69-.72-15.08-1.11-22.26-1.17H703c-6.11,0-12.28.31-18.47.93C680.09,569.75,668,500.1,649.27,447c-10.78-30.53-23.68-55.26-38.36-73.52-16.85-21-36.11-33.62-57.25-37.58a83.39,83.39,0,0,0-14.59-1.18c-14.88,0-36.22,3.35-53.41,19.29-11.29,10.48-18.77,24.68-22.23,42.2-2.8,14.16-3,30.88-.57,49.69,3.86,29.93,14.46,66.48,31.5,108.64,22.22,55,50.32,107,65.4,133.62A243.86,243.86,0,0,0,528,720.05c-14.81,18-19.46,34.29-24,50.08-3.4,12-6.92,24.3-15.27,40.55-15.38,29.94-22.71,38.18-25.12,40.89a31.24,31.24,0,0,0-3.63,4.72c-13.13,21.47-3.74,51.94,6.46,73.72,12.3,26.28,32.21,53.53,54.64,74.78,69.39,65.73,156.1,70,172.77,70.19l2.87,0a250.91,250.91,0,0,0,108.37-24.67,290.19,290.19,0,0,0,57.09-36.16c25.37-20.24,49.19-46.45,65.35-71.93,9-14.18,15.2-27.52,18.44-39.64,4.35-16.27,3.41-30.44-2.79-42.12-2.93-5.51-6.62-10.69-14-21-2.63-3.69-5.9-8.28-9.8-13.81a133.15,133.15,0,0,1-12.86-23.33c-5.52-12.51-8.26-22.56-10.92-32.26-3.79-13.87-7.72-28.21-18.64-45.88A169.83,169.83,0,0,0,846.86,688c22.9-60.6,40.67-117.34,51.59-164.88,9.6-41.81,14.08-77.18,13.3-105.12-.48-17.38-3-32.46-7.54-44.84C898.57,357.69,889.75,345.89,878,338c-10.72-7.16-23.41-10.79-37.73-10.79Z"/><ellipse class="cls-3" cx="618.2" cy="832.17" rx="25.6" ry="47.97"/><ellipse class="cls-3" cx="768.95" cy="832.91" rx="25.6" ry="47.97"/><path class="cls-3" d="M513.86,775.5a47.81,47.81,0,0,1,8.21,26.85V933.26a47.94,47.94,0,0,1-41.25,47.5,46.67,46.67,0,0,1-6.73.47H445.37a48,48,0,0,1-48-48V802.35a48,48,0,0,1,48-48h20.89V709.13A233.51,233.51,0,0,1,496,594.49c9.14,20.23,18.57,39.33,27.22,56.08a186.34,186.34,0,0,0-9.38,58.56Z"/><path class="cls-3" d="M701.12,474.26q5,0,9.89.21c-2.08,15-3.49,30.88-4.23,47.48-1.88-.06-3.76-.09-5.66-.09q-8.73,0-17.28.8c-3.16-16.43-6.75-32-10.75-46.75A239,239,0,0,1,701.12,474.26Z"/><path class="cls-3" d="M1004.86,802.35V933.26a48,48,0,0,1-48,48H928.16a48,48,0,0,1-48-48V802.35a48,48,0,0,1,8.21-26.85V709.13a186.36,186.36,0,0,0-11.1-63.53C885,623.16,892,601.48,898,580.87a233.29,233.29,0,0,1,38,128.26v45.25h20.89A48,48,0,0,1,1004.86,802.35Z"/><path class="cls-3" d="M564.3,987.38a198.6,198.6,0,0,1-119.46-39.83l12.76-17.08A178.39,178.39,0,0,0,518,959.94a181.4,181.4,0,0,0,91.6.47l5.25,20.66A206.08,206.08,0,0,1,564.3,987.38Z"/><rect class="cls-3" x="578.78" y="942.59" width="114.98" height="52.19" rx="14.01"/><ellipse class="cls-2" cx="599.82" cy="803.42" rx="18.37" ry="34.54"/><ellipse class="cls-2" cx="750.57" cy="803.42" rx="18.37" ry="34.54"/></g></g></svg>